# xmcd
#
# Track frame offsets:
#	150
#	4965
#	12848
#	22381
#	28921
#	41604
#	49727
#	56515
#	68560
#	77778
#	89868
#	99596
#	111161
#	121541
#	134111
#	149021
#	159769
#
# Disc length: 2188 seconds
#
# Revision: 1
# Processed by: cddbd v1.5.2PL0 Copyright (c) Steve Scherf et al.
# Submitted via: audiograbber 1.83.01
#
DISCID=ed088a11
DTITLE=The Lightcrust Doughboys - 150 Years Of Texas
DYEAR=1986
DGENRE=Country
TTITLE0=Opening Radio Theme
TTITLE1=The Yellow Rose Of Texas
TTITLE2=When The Bloom Is On The Sage ( When It's Round -Up Time In Texas )
TTITLE3=Got Texas In My Soul
TTITLE4=Geautiful Texas
TTITLE5=Waiting For A Train
TTITLE6=Old Joe Clark
TTITLE7=Tumbling Tumble Weeds
TTITLE8=You're From Texas
TTITLE9=If Your Gonna Play In Texas ( You Gotta  Have  A Fiddle In The Band )
TTITLE10=Amarillo By Morning
TTITLE11=Across The Alley From The Alamo
TTITLE12=In The Mood
TTITLE13=Does Fort Worth Ever Cross Your Mind ?
TTITLE14=Sure 'Nuf Texan
TTITLE15=Texas (When I Die )
TTITLE16=Closing Radio Theam
EXTD=
EXTT0=
EXTT1=
EXTT2=
EXTT3=
EXTT4=
EXTT5=
EXTT6=
EXTT7=
EXTT8=
EXTT9=
EXTT10=
EXTT11=
EXTT12=
EXTT13=
EXTT14=
EXTT15=
EXTT16=
PLAYORDER=
